<svg width="279" height="190" viewBox="0 0 279 190" fill="none" xmlns="http://www.w3.org/2000/svg">
<path d="M54.9 216C38.9 216 25.1 211.6 13.5 202.8C2.1 194 -6.7 181.6 -12.9 165.6C-19.1 149.4 -22.2 130.2 -22.2 108C-22.2 85.8 -19.1 66.7 -12.9 50.7C-6.7 34.5 2.1 22 13.5 13.2C25.1 4.39999 38.9 -1.14441e-05 54.9 -1.14441e-05C70.9 -1.14441e-05 84.7 4.39999 96.3 13.2C107.9 22 116.8 34.5 123 50.7C129.2 66.7 132.3 85.8 132.3 108C132.3 130.2 129.2 149.4 123 165.6C116.8 181.6 107.9 194 96.3 202.8C84.7 211.6 70.9 216 54.9 216ZM54.9 186.6C69.5 186.6 80.8 179.8 88.8 166.2C96.8 152.4 100.8 133 100.8 108C100.8 83 96.8 63.7 88.8 50.1C80.8 36.3 69.5 29.4 54.9 29.4C40.3 29.4 29 36.3 21 50.1C13 63.7 9 83 9 108C9 133 13 152.4 21 166.2C29 179.8 40.3 186.6 54.9 186.6ZM211.327 198.3V27.9L222.427 36.3L181.027 58.2L172.327 30L228.427 -1.14441e-05H244.027V198.3H211.327ZM178.027 213V181.8H278.227V213H178.027Z" fill="url(#paint0_linear_9_406)"/>
<defs>
<linearGradient id="paint0_linear_9_406" x1="131.416" y1="43.2083" x2="121.978" y2="226.48" gradientUnits="userSpaceOnUse">
<stop stop-color="#0072BC"/>
<stop offset="1" stop-color="#005186" stop-opacity="0.1"/>
</linearGradient>
</defs>
</svg>
