<svg width="301" height="194" viewBox="0 0 301 194" fill="none" xmlns="http://www.w3.org/2000/svg">
<path d="M53.9 216C37.9 216 24.1 211.6 12.5 202.8C1.1 194 -7.7 181.6 -13.9 165.6C-20.1 149.4 -23.2 130.2 -23.2 108C-23.2 85.8 -20.1 66.7 -13.9 50.7C-7.7 34.5 1.1 22 12.5 13.2C24.1 4.39999 37.9 -1.14441e-05 53.9 -1.14441e-05C69.9 -1.14441e-05 83.7 4.39999 95.3 13.2C106.9 22 115.8 34.5 122 50.7C128.2 66.7 131.3 85.8 131.3 108C131.3 130.2 128.2 149.4 122 165.6C115.8 181.6 106.9 194 95.3 202.8C83.7 211.6 69.9 216 53.9 216ZM53.9 186.6C68.5 186.6 79.8 179.8 87.8 166.2C95.8 152.4 99.8 133 99.8 108C99.8 83 95.8 63.7 87.8 50.1C79.8 36.3 68.5 29.4 53.9 29.4C39.3 29.4 28 36.3 20 50.1C12 63.7 8 83 8 108C8 133 12 152.4 20 166.2C28 179.8 39.3 186.6 53.9 186.6ZM173.127 213L163.227 188.4L227.427 116.1C230.827 112.5 234.327 108.4 237.927 103.8C241.727 99 245.327 94.1 248.727 89.1C252.127 84.1 254.827 79.2 256.827 74.4C259.027 69.4 260.127 64.7 260.127 60.3C260.127 53.9 258.827 48.5 256.227 44.1C253.827 39.5 250.227 36 245.427 33.6C240.827 31.2 235.227 30 228.627 30C222.827 30 217.127 31.7 211.527 35.1C205.927 38.5 200.827 43.3 196.227 49.5C191.627 55.7 188.027 62.9 185.427 71.1L160.527 55.5C163.927 43.9 169.027 34 175.827 25.8C182.827 17.4 191.127 11 200.727 6.59999C210.527 2.19999 221.127 -1.14441e-05 232.527 -1.14441e-05C244.327 -1.14441e-05 254.827 2.49999 264.027 7.49998C273.227 12.3 280.427 19.1 285.627 27.9C290.827 36.5 293.427 46.5 293.427 57.9C293.427 62.5 292.927 67.2 291.927 72C290.927 76.8 289.327 81.8 287.127 87C284.927 92 282.127 97.3 278.727 102.9C275.327 108.3 271.227 114 266.427 120C261.827 126 256.527 132.3 250.527 138.9L202.827 190.8L196.827 181.8H300.027V213H173.127Z" fill="url(#paint0_linear_9_418)"/>
<defs>
<linearGradient id="paint0_linear_9_418" x1="130.416" y1="43.2083" x2="120.978" y2="226.48" gradientUnits="userSpaceOnUse">
<stop stop-color="#0072BC"/>
<stop offset="1" stop-color="#005186" stop-opacity="0.1"/>
</linearGradient>
</defs>
</svg>
