<svg width="290" height="194" viewBox="0 0 290 194" fill="none" xmlns="http://www.w3.org/2000/svg">
<path d="M49.9 216C33.9 216 20.1 211.6 8.5 202.8C-2.9 194 -11.7 181.6 -17.9 165.6C-24.1 149.4 -27.2 130.2 -27.2 108C-27.2 85.8 -24.1 66.7 -17.9 50.7C-11.7 34.5 -2.9 22 8.5 13.2C20.1 4.39999 33.9 -1.14441e-05 49.9 -1.14441e-05C65.9 -1.14441e-05 79.7 4.39999 91.3 13.2C102.9 22 111.8 34.5 118 50.7C124.2 66.7 127.3 85.8 127.3 108C127.3 130.2 124.2 149.4 118 165.6C111.8 181.6 102.9 194 91.3 202.8C79.7 211.6 65.9 216 49.9 216ZM49.9 186.6C64.5 186.6 75.8 179.8 83.8 166.2C91.8 152.4 95.8 133 95.8 108C95.8 83 91.8 63.7 83.8 50.1C75.8 36.3 64.5 29.4 49.9 29.4C35.3 29.4 24 36.3 16 50.1C8 63.7 4 83 4 108C4 133 8 152.4 16 166.2C24 179.8 35.3 186.6 49.9 186.6ZM216.527 216C201.727 216 188.827 212.6 177.827 205.8C167.027 199 156.827 187.6 147.227 171.6L172.427 155.7C177.427 163.1 182.327 169.2 187.127 174C192.127 178.6 197.227 182 202.427 184.2C207.627 186.4 213.127 187.5 218.927 187.5C225.927 187.5 232.427 185.8 238.427 182.4C244.427 178.8 249.227 173.9 252.827 167.7C256.427 161.5 258.227 154.5 258.227 146.7C258.227 138.9 256.827 132.3 254.027 126.9C251.227 121.3 247.127 117.1 241.727 114.3C236.327 111.3 229.927 109.8 222.527 109.8C219.127 109.8 215.527 110.2 211.727 111C208.127 111.6 204.227 112.6 200.027 114C195.827 115.2 191.227 116.8 186.227 118.8L177.227 95.1L242.027 23.7L248.327 33H158.927V2.99999H279.227L285.227 15L216.527 91.2L209.027 83.4C210.627 82.6 213.227 81.9 216.827 81.3C220.627 80.5 223.727 80.1 226.127 80.1C234.927 80.1 243.127 81.8 250.727 85.2C258.527 88.4 265.227 93 270.827 99C276.627 104.8 281.127 111.7 284.327 119.7C287.727 127.5 289.427 135.9 289.427 144.9C289.427 158.5 286.127 170.7 279.527 181.5C273.127 192.1 264.427 200.5 253.427 206.7C242.427 212.9 230.127 216 216.527 216Z" fill="url(#paint0_linear_9_424)"/>
<defs>
<linearGradient id="paint0_linear_9_424" x1="126.416" y1="43.2083" x2="116.978" y2="226.48" gradientUnits="userSpaceOnUse">
<stop stop-color="#0072BC"/>
<stop offset="1" stop-color="#005186" stop-opacity="0.1"/>
</linearGradient>
</defs>
</svg>
