<svg width="315" height="194" viewBox="0 0 315 194" fill="none" xmlns="http://www.w3.org/2000/svg">
<path d="M49.9 216C33.9 216 20.1 211.6 8.5 202.8C-2.9 194 -11.7 181.6 -17.9 165.6C-24.1 149.4 -27.2 130.2 -27.2 108C-27.2 85.8 -24.1 66.7 -17.9 50.7C-11.7 34.5 -2.9 22 8.5 13.2C20.1 4.39999 33.9 -1.14441e-05 49.9 -1.14441e-05C65.9 -1.14441e-05 79.7 4.39999 91.3 13.2C102.9 22 111.8 34.5 118 50.7C124.2 66.7 127.3 85.8 127.3 108C127.3 130.2 124.2 149.4 118 165.6C111.8 181.6 102.9 194 91.3 202.8C79.7 211.6 65.9 216 49.9 216ZM49.9 186.6C64.5 186.6 75.8 179.8 83.8 166.2C91.8 152.4 95.8 133 95.8 108C95.8 83 91.8 63.7 83.8 50.1C75.8 36.3 64.5 29.4 49.9 29.4C35.3 29.4 24 36.3 16 50.1C8 63.7 4 83 4 108C4 133 8 152.4 16 166.2C24 179.8 35.3 186.6 49.9 186.6ZM246.827 213V43.8L254.327 45.6L185.327 129.9L184.127 126.3H314.627V156H164.027L150.227 129L253.127 2.99999H278.027V213H246.827Z" fill="url(#paint0_linear_9_433)"/>
<defs>
<linearGradient id="paint0_linear_9_433" x1="126.416" y1="43.2083" x2="116.978" y2="226.48" gradientUnits="userSpaceOnUse">
<stop stop-color="#0072BC"/>
<stop offset="1" stop-color="#005186" stop-opacity="0.1"/>
</linearGradient>
</defs>
</svg>
