<svg width="32" height="33" viewBox="0 0 32 33" fill="none" xmlns="http://www.w3.org/2000/svg">
<path d="M18.6667 13.2789V17.1456H22.1333C22.4 17.1456 22.5333 17.4122 22.5333 17.6789L22 20.2122C22 20.3456 21.7333 20.4789 21.6 20.4789H18.6667V30.2122H14.6667V20.6122H12.4C12.1333 20.6122 12 20.4789 12 20.2122V17.6789C12 17.4122 12.1333 17.2789 12.4 17.2789H14.6667V12.8789C14.6667 10.6122 16.4 8.87891 18.6667 8.87891H22.2667C22.5333 8.87891 22.6667 9.01224 22.6667 9.27891V12.4789C22.6667 12.7456 22.5333 12.8789 22.2667 12.8789H19.0667C18.8 12.8789 18.6667 13.0122 18.6667 13.2789Z" stroke="white" stroke-width="1.5" stroke-miterlimit="10" stroke-linecap="round"/>
<path d="M20 30.2121H12C5.33332 30.2121 2.66666 27.5454 2.66666 20.8787V12.8787C2.66666 6.21208 5.33332 3.54541 12 3.54541H20C26.6667 3.54541 29.3333 6.21208 29.3333 12.8787V20.8787C29.3333 27.5454 26.6667 30.2121 20 30.2121Z" stroke="white" stroke-width="1.5" stroke-linecap="round" stroke-linejoin="round"/>
</svg>
