<svg width="668" height="666" viewBox="0 0 668 666" fill="none" xmlns="http://www.w3.org/2000/svg">
<path fill-rule="evenodd" clip-rule="evenodd" d="M661.942 269.766L649.625 223.797L446.088 278.334L614.374 151.522L585.733 113.514L413.088 243.612L521.176 56.3987L479.961 32.6036L376.364 212.039L407.351 7.17467L360.295 0.0573846L327.508 216.828L270.766 5.06233L224.796 17.3798L281.539 229.145L144.76 57.8101L107.567 87.5015L236.834 249.426L57.3984 145.829L33.605 187.043L220.817 295.131L6.25162 268.786L0.453561 316.021L209.599 341.701L6.06235 396.239L18.3798 442.208L221.916 387.671L53.6311 514.483L82.2696 552.489L254.917 422.394L146.83 609.606L188.043 633.4L291.64 453.964L260.654 658.83L307.709 665.946L340.496 449.178L397.238 660.942L443.208 648.625L386.465 436.857L523.245 608.193L560.438 578.503L431.17 416.577L610.606 520.174L634.401 478.961L447.188 370.875L661.751 397.217L667.552 349.983L458.406 324.303L661.942 269.766Z" fill="url(#paint0_linear_9_410)"/>
<defs>
<linearGradient id="paint0_linear_9_410" x1="655.783" y1="246.781" x2="-125.852" y2="402.716" gradientUnits="userSpaceOnUse">
<stop stop-color="#0072BC"/>
<stop offset="1" stop-color="#0072BC" stop-opacity="0"/>
</linearGradient>
</defs>
</svg>
