<svg width="61" height="48" viewBox="0 0 61 48" fill="none" xmlns="http://www.w3.org/2000/svg">
<path d="M6.61947 47.6516C5.02233 47.6516 3.67047 47.0983 2.5639 45.9918C1.45734 44.8852 0.904053 43.5333 0.904053 41.9362V5.94272C0.904053 4.34557 1.45734 2.99371 2.5639 1.88715C3.67047 0.780579 5.02233 0.227295 6.61947 0.227295H55.2594C56.8566 0.227295 58.2084 0.780579 59.315 1.88715C60.4216 2.99371 60.9749 4.34557 60.9749 5.94272V41.9362C60.9749 43.5333 60.4216 44.8852 59.315 45.9918C58.2084 47.0983 56.8566 47.6516 55.2594 47.6516H6.61947ZM30.9395 25.7028L56.2324 9.52957L55.7463 4.96973L30.9395 20.7778L6.13258 4.96973L5.64648 9.52957L30.9395 25.7028Z" fill="#0072BC"/>
<path d="M6.61947 47.6516C5.02233 47.6516 3.67047 47.0983 2.5639 45.9918C1.45734 44.8852 0.904053 43.5333 0.904053 41.9362V5.94272C0.904053 4.34557 1.45734 2.99371 2.5639 1.88715C3.67047 0.780579 5.02233 0.227295 6.61947 0.227295H55.2594C56.8566 0.227295 58.2084 0.780579 59.315 1.88715C60.4216 2.99371 60.9749 4.34557 60.9749 5.94272V41.9362C60.9749 43.5333 60.4216 44.8852 59.315 45.9918C58.2084 47.0983 56.8566 47.6516 55.2594 47.6516H6.61947ZM30.9395 25.7028L56.2324 9.52957L55.7463 4.96973L30.9395 20.7778L6.13258 4.96973L5.64648 9.52957L30.9395 25.7028Z" fill="url(#paint0_linear_8_200)"/>
<defs>
<linearGradient id="paint0_linear_8_200" x1="30.9395" y1="32.8453" x2="30.9395" y2="0.227294" gradientUnits="userSpaceOnUse">
<stop offset="0.0001" stop-color="#005192" stop-opacity="0"/>
<stop offset="1" stop-color="#005192"/>
</linearGradient>
</defs>
</svg>
