<svg width="32" height="33" viewBox="0 0 32 33" fill="none" xmlns="http://www.w3.org/2000/svg">
<path d="M9.20002 28.3454C11.2 29.5454 13.6 30.2121 16 30.2121C23.3334 30.2121 29.3334 24.2121 29.3334 16.8787C29.3334 9.54541 23.3334 3.54541 16 3.54541C8.66669 3.54541 2.66669 9.54541 2.66669 16.8787C2.66669 19.2787 3.33335 21.5454 4.40002 23.5454L3.10713 28.5181C2.91241 29.267 3.60561 29.9438 4.34967 29.7312L9.20002 28.3454Z" stroke="white" stroke-width="1.5" stroke-miterlimit="10" stroke-linecap="round" stroke-linejoin="round"/>
<path d="M22 20.6769C22 20.8929 21.9519 21.1149 21.8498 21.3309C21.7476 21.5469 21.6154 21.7509 21.4412 21.9429C21.1467 22.2669 20.8222 22.5009 20.4557 22.6509C20.0951 22.8009 19.7046 22.8789 19.2839 22.8789C18.671 22.8789 18.016 22.7349 17.325 22.4409C16.634 22.1469 15.9429 21.7509 15.2579 21.2529C14.5669 20.7489 13.9119 20.1909 13.2869 19.5729C12.668 18.9489 12.1092 18.2949 11.6104 17.6109C11.1177 16.9269 10.7211 16.2429 10.4326 15.5649C10.1442 14.8809 10 14.2269 10 13.6029C10 13.1949 10.0721 12.8049 10.2163 12.4449C10.3605 12.0789 10.5889 11.7429 10.9074 11.4429C11.2919 11.0649 11.7126 10.8789 12.1572 10.8789C12.3255 10.8789 12.4937 10.9149 12.644 10.9869C12.8002 11.0589 12.9384 11.1669 13.0466 11.3229L14.4407 13.2849C14.5488 13.4349 14.6269 13.5729 14.681 13.7049C14.7351 13.8309 14.7651 13.9569 14.7651 14.0709C14.7651 14.2149 14.7231 14.3589 14.639 14.4969C14.5608 14.6349 14.4467 14.7789 14.3025 14.9229L13.8458 15.3969C13.7797 15.4629 13.7496 15.5409 13.7496 15.6369C13.7496 15.6849 13.7556 15.7269 13.7677 15.7749C13.7857 15.8229 13.8037 15.8589 13.8157 15.8949C13.9239 16.0929 14.1102 16.3509 14.3746 16.6629C14.645 16.9749 14.9334 17.2929 15.2459 17.6109C15.5704 17.9289 15.8828 18.2229 16.2013 18.4929C16.5138 18.7569 16.7722 18.9369 16.9765 19.0449C17.0065 19.0569 17.0426 19.0749 17.0846 19.0929C17.1327 19.1109 17.1808 19.1169 17.2349 19.1169C17.337 19.1169 17.4151 19.0809 17.4812 19.0149L17.9379 18.5649C18.0881 18.4149 18.2323 18.3009 18.3706 18.2289C18.5088 18.1449 18.647 18.1029 18.7972 18.1029C18.9114 18.1029 19.0315 18.1269 19.1637 18.1809C19.2959 18.2349 19.4342 18.3129 19.5844 18.4149L21.5734 19.8249C21.7296 19.9329 21.8378 20.0589 21.9039 20.2089C21.9639 20.3589 22 20.5089 22 20.6769Z" stroke="white" stroke-width="1.5" stroke-miterlimit="10"/>
</svg>
